<?xml version="1.0" encoding="UTF-8" standalone="no"?>
<svg
   xmlns:dc="http://purl.org/dc/elements/1.1/"
   xmlns:cc="http://creativecommons.org/ns#"
   xmlns:rdf="http://www.w3.org/1999/02/22-rdf-syntax-ns#"
   xmlns:svg="http://www.w3.org/2000/svg"
   xmlns="http://www.w3.org/2000/svg"
   viewBox="0 0 1056 418.56"
   height="418.56"
   width="1056"
   id="svg2"
   version="1.1">
  <metadata
     id="metadata8">
    <rdf:RDF>
      <cc:Work
         rdf:about="">
        <dc:format>image/svg+xml</dc:format>
        <dc:type
           rdf:resource="http://purl.org/dc/dcmitype/StillImage" />
        <dc:title></dc:title>
      </cc:Work>
    </rdf:RDF>
  </metadata>
  <defs
     id="defs6" />
  <g
     transform="translate(7.3503327,17.150812)"
     id="g12">
    <path
       id="path26"
       d="m 756.48,321.08542 c 0,-0.28303 2.7,-6.38459 6,-13.55904 l 6,-13.04445 5.93973,12.35904 c 3.26686,6.79746 5.96686,12.89903 6,13.55903 0.0331,0.66 -0.82577,1.2 -1.90872,1.2 -1.34286,0 -2.41542,-1.06846 -3.37288,-3.36 -1.35414,-3.24092 -1.58426,-3.36 -6.49321,-3.36 -4.87117,0 -5.158,0.14403 -6.69159,3.36 -1.04871,2.19918 -2.27096,3.36 -3.5378,3.36 -1.06454,0 -1.93553,-0.23156 -1.93553,-0.51458 z m 13.90219,-13.59611 c -0.81596,-1.95287 -1.57869,-3.64582 -1.69495,-3.76207 -0.11627,-0.11627 -0.93437,1.48155 -1.81802,3.55068 l -1.60664,3.76208 h 3.30159 3.3016 z m 14.89781,1.22108 c 0,-7.16671 0.27163,-13.03039 0.60362,-13.03039 0.33199,0 4.43599,3.75018 9.12,8.33373 l 8.51638,8.33372 v -8.33372 c 0,-7.69373 0.14745,-8.33373 1.92,-8.33373 1.82677,0 1.92,0.64 1.92,13.18104 v 13.18104 l -9.07998,-9.04223 -9.07998,-9.04222 -0.28002,8.57038 c -0.23744,7.26725 -0.53547,8.61923 -1.96002,8.89158 -1.53326,0.29313 -1.68,-0.81694 -1.68,-12.7092 z m 35.75123,10.97479 c -8.53535,-5.20406 -9.11067,-16.44603 -1.13238,-22.12708 3.90415,-2.78 10.96495,-3.05305 14.75373,-0.57055 3.66638,2.4023 6.29967,7.22254 6.30383,11.53914 0.01,9.9978 -11.37345,16.37255 -19.92518,11.15849 z M 833.21418,315.12 c 6.30493,-5.85171 2.85575,-15.6 -5.51963,-15.6 -5.06781,0 -8.81455,3.63739 -8.81455,8.55731 0,8.37484 8.43406,12.51868 14.33418,7.04269 z m 15.63943,4.98557 c -2.45744,-1.72126 -2.87659,-5.22557 -0.62504,-5.22557 0.82971,0 2.17956,0.67099 2.99966,1.49109 3.12422,3.12423 8.83758,-0.53438 6.06032,-3.88079 -0.72605,-0.87485 -2.98629,-2.44065 -5.02273,-3.47957 -6.49102,-3.31147 -7.32536,-9.94475 -1.62184,-12.89416 3.43496,-1.77628 7.59395,-1.17083 9.96659,1.45091 1.50943,1.6679 1.50072,1.8396 -0.13986,2.75772 -1.3064,0.7311 -2.18939,0.58098 -3.4863,-0.5927 -1.31277,-1.18804 -2.13325,-1.32171 -3.36061,-0.54752 -2.85697,1.80214 -1.89058,4.47039 2.49535,6.88981 7.16211,3.95085 8.64911,8.99695 4.01643,13.62963 -2.32116,2.32116 -8.24029,2.53162 -11.28197,0.40115 z M 87.36,297.6 V 275.52 H 360 632.64 v 22.08 22.08 H 360 87.36 Z m 331.2,9.12 v -7.2 h 5.76 5.76 v 7.2 7.2 h 3.84 3.84 V 297.6 281.28 h -3.84 -3.84 v 6.24 6.24 h -5.76 -5.76 v -6.24 -6.24 h -3.36 -3.36 v 16.32 16.32 h 3.36 3.36 z m 45.88767,5.85121 c 6.15981,-3.20494 9.55162,-10.62699 8.31694,-18.19933 -1.43995,-8.83125 -6.47934,-13.09404 -15.47273,-13.08829 -10.35846,0.007 -15.12248,5.18067 -15.17953,16.48601 -0.0361,7.16105 1.48129,10.12695 7.15789,13.9904 3.72199,2.53316 11.10905,2.92799 15.17743,0.81121 z m -12.32911,-7.13173 c -1.6558,-1.34078 -2.28087,-3.04744 -2.62178,-7.15842 -0.41579,-5.01386 -0.23978,-5.60575 2.47395,-8.31947 1.71034,-1.71035 3.92499,-2.92159 5.34189,-2.92159 7.47909,0 11.15956,12.48782 5.38296,18.26442 -2.40872,2.40872 -7.68595,2.47611 -10.57702,0.13506 z m 43.675,7.12179 c 3.93544,-1.64433 5.32644,-4.00299 5.32644,-9.0318 0,-5.29172 -2.24881,-7.52924 -10.08,-10.0294 -5.36076,-1.71146 -6.72,-2.53322 -6.72,-4.06274 0,-1.52205 0.741,-1.97868 3.59433,-2.21494 3.09089,-0.25593 3.75576,0.0566 4.7468,2.23179 1.0282,2.25663 1.52057,2.46067 4.56568,1.892 4.23819,-0.79149 4.13371,-0.66857 3.03174,-3.56697 -1.66896,-4.38968 -5.50263,-6.49921 -11.81113,-6.49921 -3.13151,0 -6.52477,0.44481 -7.54059,0.98845 -2.77172,1.48339 -4.96676,6.3848 -4.2733,9.54208 0.84562,3.85008 3.36002,5.75218 10.78799,8.16094 7.23995,2.34778 8.60028,4.75529 3.94707,6.98552 -3.26288,1.56385 -7.23237,0.18711 -8.41287,-2.91786 -0.72365,-1.90331 -1.37389,-2.17411 -4.3783,-1.82336 -3.26668,0.38137 -3.48194,0.59931 -2.90175,2.93808 0.72738,2.93216 3.96108,6.70732 6.72433,7.85028 3.05063,1.26183 9.85189,1.03695 13.39356,-0.44286 z M 513.6,307.68 v -6.24 h 4.75483 c 5.93848,0 9.39407,-1.52978 11.15717,-4.93923 2.86342,-5.53724 0.6972,-12.34281 -4.50609,-14.15669 -1.67883,-0.58524 -6.65996,-1.06408 -11.06916,-1.06408 H 505.92 v 16.32 16.32 h 3.84 3.84 z m 0,-15.84 c 0,-3.80631 0.032,-3.84 3.648,-3.84 3.9596,0 5.952,1.33838 5.952,3.99823 0,2.12273 -2.81884,3.68177 -6.65689,3.68177 -2.79363,0 -2.94311,-0.19503 -2.94311,-3.84 z m 28.8,5.76 v -16.32 h -3.84 -3.84 v 16.32 16.32 h 3.84 3.84 z m 19.2,3.36 V 288 h 4.32 c 4.29714,0 4.32,-0.0178 4.32,-3.36 v -3.36 h -12.48 -12.48 v 3.36 c 0,3.34222 0.0229,3.36 4.32,3.36 h 4.32 v 12.96 12.96 h 3.84 3.84 z m 14.76799,9.12 1.53647,-3.84 h 5.73077 5.73076 l 1.03401,3.84 c 0.98547,3.65976 1.21251,3.84 4.837,3.84 2.42144,0 3.79003,-0.43594 3.76729,-1.2 -0.0197,-0.66 -2.79281,-7.896 -6.16261,-16.08 l -6.12688,-14.88 h -3.54895 -3.54895 l -5.64644,14.4 c -3.10553,7.92 -5.89244,15.156 -6.19313,16.08 -0.45857,1.40916 0.066,1.68 3.25374,1.68 3.53779,0 3.90665,-0.2654 5.33692,-3.84 z m 5.22057,-14.51589 1.57204,-4.9159 1.10102,2.7559 c 2.74381,6.86789 2.71709,7.07589 -0.90866,7.07589 h -3.33644 z M 624.96,310.56 v -3.36 h -7.68 -7.68 v -12.96 -12.96 h -3.84 -3.84 v 16.32 16.32 h 11.52 11.52 z m 77.50509,-26.42483 c -9.14066,-2.30448 -15.90072,-7.8472 -19.70478,-16.15636 -2.01374,-4.39859 -2.29374,-6.17077 -1.91282,-12.10644 0.29389,-4.57929 1.21799,-8.55813 2.70647,-11.65296 2.73293,-5.68232 11.49504,-14.6558 16.76604,-17.17051 4.41964,-2.10854 10.43258,-2.44032 12.19976,-0.67314 1.42468,1.42468 0.96726,2.26757 -6.67313,12.29701 -2.76834,3.63398 -6.81669,10.18503 -8.99633,14.55791 -3.53188,7.08582 -3.91574,8.52007 -3.52888,13.18512 1.13519,13.6889 14.68268,15.66157 35.97703,5.23865 11.31943,-5.54049 22.18893,-13.9118 35.34155,-27.21885 13.2447,-13.4002 21.67188,-24.82668 28.39888,-38.50628 5.86067,-11.9179 7.91901,-19.8178 7.42796,-28.50839 -0.31705,-5.61094 -0.75268,-6.94209 -3.00788,-9.19107 -2.42456,-2.41789 -3.20687,-2.62056 -9.70583,-2.51441 -8.9743,0.14656 -17.57644,2.76026 -29.70888,9.0268 -9.05324,4.67611 -12.12957,5.34821 -12.11981,2.64787 0.003,-0.67656 7.40594,-10.08612 16.45222,-20.91012 25.16822,-30.11418 29.0848,-35.34855 28.84122,-38.54529 -0.11461,-1.50409 -0.0393,-2.73471 0.16742,-2.73471 0.20668,0 2.91354,1.12759 6.01525,2.50574 15.39669,6.84114 39.25274,9.84588 53.32109,6.71597 3.96877,-0.88297 10.51491,-3.2925 14.54698,-5.35452 4.09395,-2.09367 7.58169,-3.34357 7.89868,-2.83065 0.98752,1.59784 -3.3342,7.38627 -8.15897,10.92799 -10.10179,7.41538 -20.84346,10.54389 -36.04833,10.49907 -15.36077,-0.0453 -27.62716,-3.76762 -31.99673,-9.70964 -2.35409,-3.20123 -0.0223,-5.36688 -19.86139,18.44604 -8.35789,10.032 -15.87696,19.0551 -16.70903,20.05133 -1.46405,1.75291 -1.41996,1.76417 1.36715,0.34916 1.584,-0.80419 6.552,-2.64849 11.04,-4.09844 6.71471,-2.16933 10.03038,-2.65626 18.72,-2.74916 9.27933,-0.0992 11.05637,0.15222 14.65286,2.07318 7.88622,4.21218 11.76033,12.61722 11.73574,25.46118 -0.0151,7.86759 -1.94581,14.84564 -6.69389,24.19275 -12.6766,24.95522 -43.38161,53.55928 -70.60425,65.77326 -13.19978,5.92233 -29.69633,8.81204 -38.14537,6.68191 z m 126.04723,-0.68018 c -5.89899,-2.0822 -12.77058,-9.34398 -15.44675,-16.32391 -8.99299,-23.45521 4.15615,-64.31184 31.57087,-98.09615 4.04996,-4.99094 10.38756,-13.06999 14.08356,-17.95345 27.46365,-36.28723 60.22191,-57.69679 85.23436,-55.705936 12.8975,1.026571 18.55537,6.481806 22.2627,21.465536 5.208,21.04891 1.59513,44.07296 -10.96539,69.87892 -12.77669,26.25013 -33.66301,50.39244 -61.54946,71.14451 -17.67982,13.15667 -20.61853,15.0933 -30.35185,20.00211 -14.10041,7.11129 -25.39198,8.92257 -34.83804,5.58837 z m 5.22721,-7.81085 c -2.12326,-0.96453 -5.90326,-4.02576 -8.4,-6.80274 -4.74244,-5.27473 -5.98564,-4.82537 -2.49442,0.90163 2.44252,4.00671 4.20435,5.46249 8.03489,6.63915 5.10684,1.56868 6.91188,1.10282 2.85953,-0.73804 z M 864.56165,259.087 c 15.05122,-5.63138 45.72908,-32.03008 59.27246,-51.00474 17.50976,-24.53164 27.75932,-53.97087 24.7481,-71.08247 C 946.78633,126.7945 942.02383,122.4 932.75982,122.4 c -5.00731,0 -7.21986,0.60899 -13.60961,3.74595 -6.85122,3.36352 -9.39792,5.51971 -24.94496,21.12 -18.95423,19.01914 -28.17374,29.94417 -39.17633,46.4236 -8.89059,13.31614 -11.37925,18.38991 -14.62786,29.8226 -3.16592,11.14169 -3.09231,24.38615 0.16653,29.96607 4.46744,7.6493 13.12886,9.67398 23.99406,5.60878 z m 92.44477,-120.88359 c 0.0959,-7.73038 -0.22286,-9.82375 -2.04642,-13.44 -2.49275,-4.94326 -8.56267,-8.62575 -14.12341,-8.56835 l -3.39659,0.035 5.05124,2.44373 c 9.01452,4.36111 12.62314,11.73429 12.82234,26.19872 0.15376,11.16448 1.53933,5.70581 1.69284,-6.66915 z m 1.07358,-21.453 c 0,-0.20327 -1.188,-1.09291 -2.64,-1.97698 l -2.64,-1.60738 2.26635,1.97697 c 2.21158,1.9292 3.01365,2.357 3.01365,1.60739 z m -3.37467,-11.16572 c -5.4701,-5.709554 -14.27772,-5.892789 -23.53012,-0.48951 l -4.29521,2.50835 4.8,-0.76177 c 6.36645,-1.01036 18.59708,-0.71223 21.6,0.52651 4.00381,1.65162 4.32791,1.24606 1.42533,-1.78358 z M 87.36,189.6 v -74.4 h 15.84 15.84 v 27.36 27.36 h 25.44 25.44 V 142.56 115.2 h 15.84 15.84 V 189.6 264 H 185.76 169.92 V 233.28 202.56 H 144.48 119.04 V 233.28 264 H 103.2 87.36 Z m 189.35404,0.72 0.24596,-73.68 h 18.66663 18.66664 l 23.09336,42.63077 23.09337,42.63076 0.24989,-42.87076 0.24988,-42.87077 H 378.24989 395.52 v 73.94073 73.94073 L 377.19467,263.78073 358.86933,263.52 334.71467,220.26544 310.56,177.01089 310.31031,220.50544 310.06063,264 h -16.79628 -16.79627 z m 140.1469,72.19162 c -2.78248,-0.74911 -6.34648,-2.02777 -7.92,-2.84148 L 406.08,258.19069 v -14.85534 c 0,-8.17045 0.324,-14.84977 0.72,-14.84297 0.396,0.007 3.45849,0.87082 6.80553,1.92 7.62118,2.38899 18.00042,2.5568 21.16227,0.34216 4.86652,-3.40865 4.9122,-3.98298 4.9122,-61.7637 V 115.2 h 16.85164 16.85164 l -0.61188,48.72 c -0.33653,26.796 -0.9467,54.38136 -1.35595,61.30079 -0.6621,11.19465 -1.04166,13.12753 -3.44491,17.54311 -8.73461,16.04835 -31.77862,24.9521 -51.1096,19.74772 z M 222.72,189.6 v -73.44 h 16.8 16.8 v 73.44 73.44 h -16.8 -16.8 z m 250.81304,71.29764 c 0.25958,-0.6697 14.63332,-33.30355 31.94162,-72.51965 l 31.46963,-71.30203 16.24272,0.26203 16.24273,0.26201 18.16513,42.61514 c 9.99083,23.43833 18.16513,42.77033 18.16513,42.96 0,0.50155 -20.78526,0.18948 -33.39841,-0.50144 l -10.83842,-0.5937 -5.11807,-11.36632 -5.11806,-11.36632 -5.40352,13.81841 c -2.97194,7.60012 -5.40352,14.11897 -5.40352,14.48632 0,0.36735 14.0655,0.66791 31.25666,0.66791 17.19116,0 31.03255,0.36261 30.75865,0.8058 -0.27391,0.44318 -7.53282,5.95118 -16.13094,12.24 l -15.63292,11.4342 -20.50877,0.48 -20.50878,0.48 -5.55449,13.92 -5.55448,13.92 -22.77194,0.25764 c -18.08308,0.20458 -22.67476,0.007 -22.29995,-0.96 z M 584.94106,260.4 c -0.32928,-0.924 -2.63757,-6.84412 -5.1295,-13.15581 l -4.53081,-11.4758 4.91962,-3.43013 c 2.7058,-1.88656 10.37087,-7.17991 17.03351,-11.76299 l 12.11387,-8.33286 9.79692,23.58476 c 5.3883,12.97161 10.02727,24.18508 10.30883,24.91879 0.42787,1.11504 -3.13476,1.33404 -21.70092,1.33404 -20.28701,0 -22.26475,-0.14565 -22.81152,-1.68 z"
       style="fill:#f4d722;stroke-width:0.99999994" />
    <path
       id="path24"
       d="m 756.48,321.08542 c 0,-0.28303 2.7,-6.38459 6,-13.55904 l 6,-13.04445 5.93973,12.35904 c 3.26686,6.79746 5.96686,12.89903 6,13.55903 0.0331,0.66 -0.82577,1.2 -1.90872,1.2 -1.34286,0 -2.41542,-1.06846 -3.37288,-3.36 -1.35414,-3.24092 -1.58426,-3.36 -6.49321,-3.36 -4.87117,0 -5.158,0.14403 -6.69159,3.36 -1.04871,2.19918 -2.27096,3.36 -3.5378,3.36 -1.06454,0 -1.93553,-0.23156 -1.93553,-0.51458 z m 13.90219,-13.59611 c -0.81596,-1.95287 -1.57869,-3.64582 -1.69495,-3.76207 -0.11627,-0.11627 -0.93437,1.48155 -1.81802,3.55068 l -1.60664,3.76208 h 3.30159 3.3016 z m 14.89781,1.22108 c 0,-7.16671 0.27163,-13.03039 0.60362,-13.03039 0.33199,0 4.43599,3.75018 9.12,8.33373 l 8.51638,8.33372 v -8.33372 c 0,-7.69373 0.14745,-8.33373 1.92,-8.33373 1.82677,0 1.92,0.64 1.92,13.18104 v 13.18104 l -9.07998,-9.04223 -9.07998,-9.04222 -0.28002,8.57038 c -0.23744,7.26725 -0.53547,8.61923 -1.96002,8.89158 -1.53326,0.29313 -1.68,-0.81694 -1.68,-12.7092 z m 35.75123,10.97479 c -8.53535,-5.20406 -9.11067,-16.44603 -1.13238,-22.12708 3.90415,-2.78 10.96495,-3.05305 14.75373,-0.57055 3.66638,2.4023 6.29967,7.22254 6.30383,11.53914 0.01,9.9978 -11.37345,16.37255 -19.92518,11.15849 z M 833.21418,315.12 c 6.30493,-5.85171 2.85575,-15.6 -5.51963,-15.6 -5.06781,0 -8.81455,3.63739 -8.81455,8.55731 0,8.37484 8.43406,12.51868 14.33418,7.04269 z m 15.63943,4.98557 c -2.45744,-1.72126 -2.87659,-5.22557 -0.62504,-5.22557 0.82971,0 2.17956,0.67099 2.99966,1.49109 3.12422,3.12423 8.83758,-0.53438 6.06032,-3.88079 -0.72605,-0.87485 -2.98629,-2.44065 -5.02273,-3.47957 -6.49102,-3.31147 -7.32536,-9.94475 -1.62184,-12.89416 3.43496,-1.77628 7.59395,-1.17083 9.96659,1.45091 1.50943,1.6679 1.50072,1.8396 -0.13986,2.75772 -1.3064,0.7311 -2.18939,0.58098 -3.4863,-0.5927 -1.31277,-1.18804 -2.13325,-1.32171 -3.36061,-0.54752 -2.85697,1.80214 -1.89058,4.47039 2.49535,6.88981 7.16211,3.95085 8.64911,8.99695 4.01643,13.62963 -2.32116,2.32116 -8.24029,2.53162 -11.28197,0.40115 z M 87.36,297.6 V 275.52 H 360 632.64 v 22.08 22.08 H 360 87.36 Z m 331.2,9.12 v -7.2 h 5.76 5.76 v 7.2 7.2 h 3.84 3.84 V 297.6 281.28 h -3.84 -3.84 v 6.24 6.24 h -5.76 -5.76 v -6.24 -6.24 h -3.36 -3.36 v 16.32 16.32 h 3.36 3.36 z m 45.88767,5.85121 c 6.15981,-3.20494 9.55162,-10.62699 8.31694,-18.19933 -1.43995,-8.83125 -6.47934,-13.09404 -15.47273,-13.08829 -10.35846,0.007 -15.12248,5.18067 -15.17953,16.48601 -0.0361,7.16105 1.48129,10.12695 7.15789,13.9904 3.72199,2.53316 11.10905,2.92799 15.17743,0.81121 z m -12.32911,-7.13173 c -1.6558,-1.34078 -2.28087,-3.04744 -2.62178,-7.15842 -0.41579,-5.01386 -0.23978,-5.60575 2.47395,-8.31947 1.71034,-1.71035 3.92499,-2.92159 5.34189,-2.92159 7.47909,0 11.15956,12.48782 5.38296,18.26442 -2.40872,2.40872 -7.68595,2.47611 -10.57702,0.13506 z m 43.675,7.12179 c 3.93544,-1.64433 5.32644,-4.00299 5.32644,-9.0318 0,-5.29172 -2.24881,-7.52924 -10.08,-10.0294 -5.36076,-1.71146 -6.72,-2.53322 -6.72,-4.06274 0,-1.52205 0.741,-1.97868 3.59433,-2.21494 3.09089,-0.25593 3.75576,0.0566 4.7468,2.23179 1.0282,2.25663 1.52057,2.46067 4.56568,1.892 4.23819,-0.79149 4.13371,-0.66857 3.03174,-3.56697 -1.66896,-4.38968 -5.50263,-6.49921 -11.81113,-6.49921 -3.13151,0 -6.52477,0.44481 -7.54059,0.98845 -2.77172,1.48339 -4.96676,6.3848 -4.2733,9.54208 0.84562,3.85008 3.36002,5.75218 10.78799,8.16094 7.23995,2.34778 8.60028,4.75529 3.94707,6.98552 -3.26288,1.56385 -7.23237,0.18711 -8.41287,-2.91786 -0.72365,-1.90331 -1.37389,-2.17411 -4.3783,-1.82336 -3.26668,0.38137 -3.48194,0.59931 -2.90175,2.93808 0.72738,2.93216 3.96108,6.70732 6.72433,7.85028 3.05063,1.26183 9.85189,1.03695 13.39356,-0.44286 z M 513.6,307.68 v -6.24 h 4.75483 c 5.93848,0 9.39407,-1.52978 11.15717,-4.93923 2.86342,-5.53724 0.6972,-12.34281 -4.50609,-14.15669 -1.67883,-0.58524 -6.65996,-1.06408 -11.06916,-1.06408 H 505.92 v 16.32 16.32 h 3.84 3.84 z m 0,-15.84 c 0,-3.80631 0.032,-3.84 3.648,-3.84 3.9596,0 5.952,1.33838 5.952,3.99823 0,2.12273 -2.81884,3.68177 -6.65689,3.68177 -2.79363,0 -2.94311,-0.19503 -2.94311,-3.84 z m 28.8,5.76 v -16.32 h -3.84 -3.84 v 16.32 16.32 h 3.84 3.84 z m 19.2,3.36 V 288 h 4.32 c 4.29714,0 4.32,-0.0178 4.32,-3.36 v -3.36 h -12.48 -12.48 v 3.36 c 0,3.34222 0.0229,3.36 4.32,3.36 h 4.32 v 12.96 12.96 h 3.84 3.84 z m 14.76799,9.12 1.53647,-3.84 h 5.73077 5.73076 l 1.03401,3.84 c 0.98547,3.65976 1.21251,3.84 4.837,3.84 2.42144,0 3.79003,-0.43594 3.76729,-1.2 -0.0197,-0.66 -2.79281,-7.896 -6.16261,-16.08 l -6.12688,-14.88 h -3.54895 -3.54895 l -5.64644,14.4 c -3.10553,7.92 -5.89244,15.156 -6.19313,16.08 -0.45857,1.40916 0.066,1.68 3.25374,1.68 3.53779,0 3.90665,-0.2654 5.33692,-3.84 z m 5.22057,-14.51589 1.57204,-4.9159 1.10102,2.7559 c 2.74381,6.86789 2.71709,7.07589 -0.90866,7.07589 h -3.33644 z M 624.96,310.56 v -3.36 h -7.68 -7.68 v -12.96 -12.96 h -3.84 -3.84 v 16.32 16.32 h 11.52 11.52 z m 77.50509,-26.42483 c -9.14066,-2.30448 -15.90072,-7.8472 -19.70478,-16.15636 -2.01374,-4.39859 -2.29374,-6.17077 -1.91282,-12.10644 0.29389,-4.57929 1.21799,-8.55813 2.70647,-11.65296 2.73293,-5.68232 11.49504,-14.6558 16.76604,-17.17051 4.41964,-2.10854 10.43258,-2.44032 12.19976,-0.67314 1.42468,1.42468 0.96726,2.26757 -6.67313,12.29701 -2.76834,3.63398 -6.81669,10.18503 -8.99633,14.55791 -3.53188,7.08582 -3.91574,8.52007 -3.52888,13.18512 1.13519,13.6889 14.68268,15.66157 35.97703,5.23865 11.31943,-5.54049 22.18893,-13.9118 35.34155,-27.21885 13.2447,-13.4002 21.67188,-24.82668 28.39888,-38.50628 5.86067,-11.9179 7.91901,-19.8178 7.42796,-28.50839 -0.31705,-5.61094 -0.75268,-6.94209 -3.00788,-9.19107 -2.42456,-2.41789 -3.20687,-2.62056 -9.70583,-2.51441 -8.9743,0.14656 -17.57644,2.76026 -29.70888,9.0268 -9.05324,4.67611 -12.12957,5.34821 -12.11981,2.64787 0.003,-0.67656 7.40594,-10.08612 16.45222,-20.91012 25.16822,-30.11418 29.0848,-35.34855 28.84122,-38.54529 -0.11461,-1.50409 -0.0393,-2.73471 0.16742,-2.73471 0.20668,0 2.91354,1.12759 6.01525,2.50574 15.39669,6.84114 39.25274,9.84588 53.32109,6.71597 3.96877,-0.88297 10.51491,-3.2925 14.54698,-5.35452 4.09395,-2.09367 7.58169,-3.34357 7.89868,-2.83065 0.98752,1.59784 -3.3342,7.38627 -8.15897,10.92799 -10.10179,7.41538 -20.84346,10.54389 -36.04833,10.49907 -15.36077,-0.0453 -27.62716,-3.76762 -31.99673,-9.70964 -2.35409,-3.20123 -0.0223,-5.36688 -19.86139,18.44604 -8.35789,10.032 -15.87696,19.0551 -16.70903,20.05133 -1.46405,1.75291 -1.41996,1.76417 1.36715,0.34916 1.584,-0.80419 6.552,-2.64849 11.04,-4.09844 6.71471,-2.16933 10.03038,-2.65626 18.72,-2.74916 9.27933,-0.0992 11.05637,0.15222 14.65286,2.07318 7.88622,4.21218 11.76033,12.61722 11.73574,25.46118 -0.0151,7.86759 -1.94581,14.84564 -6.69389,24.19275 -12.6766,24.95522 -43.38161,53.55928 -70.60425,65.77326 -13.19978,5.92233 -29.69633,8.81204 -38.14537,6.68191 z m 131.27444,-8.49103 c -6.03332,-2.74075 -12.57053,-10.6992 -14.84962,-18.07807 -6.25101,-20.23842 3.45624,-54.37436 23.33201,-82.04797 3.15942,-4.39895 7.46345,-10.8061 9.56451,-14.2381 12.5607,-20.5174 35.13933,-43.39257 53.83318,-54.54018 23.81302,-14.200305 45.53115,-15.396744 55.46615,-3.0556 3.76445,4.6761 7.55424,20.24169 7.55424,31.02689 0,27.22581 -13.27412,59.14898 -36.30321,87.3062 -6.82144,8.34044 -23.35501,24.33412 -31.90992,30.8679 -5.80142,4.43082 -5.58601,4.13178 3.45779,-4.8 26.65125,-26.32118 43.83303,-56.13128 49.79654,-86.39617 0.82463,-4.18497 1.9254,-9.33704 2.44616,-11.44904 0.52076,-2.112 0.95714,-7.74446 0.96973,-12.51659 0.0295,-11.17145 -2.17363,-16.14919 -8.61709,-19.4695 -11.781,-6.07073 -28.367,2.9245 -55.2156,29.94556 -18.11128,18.22762 -27.45769,29.34736 -38.23548,45.49008 -8.89059,13.31614 -11.37925,18.38991 -14.62786,29.8226 -2.1408,7.53405 -2.48246,10.35399 -2.15673,17.80149 0.43924,10.04273 2.13501,14.04816 7.46954,17.6431 10.68295,7.19924 31.53012,-2.94103 57.50499,-27.97098 8.60489,-8.29186 11.33108,-10.55632 7.99069,-6.63731 -6.38987,7.49671 -22.84719,23.63748 -30.40955,29.82465 -12.58699,10.29809 -26.99632,18.78059 -36.89424,21.71896 -6.29198,1.86789 -5.46419,1.88808 -10.16623,-0.24792 z M 958.08,116.75041 c 0,-0.20327 -1.188,-1.09291 -2.64,-1.97698 l -2.64,-1.60738 2.26635,1.97697 c 2.21158,1.9292 3.01365,2.357 3.01365,1.60739 z m -3.37467,-11.16572 c -5.4701,-5.709554 -14.27772,-5.892789 -23.53012,-0.48951 l -4.29521,2.50835 4.8,-0.76177 c 6.36645,-1.01036 18.59708,-0.71223 21.6,0.52651 4.00381,1.65162 4.32791,1.24606 1.42533,-1.78358 z M 87.36,189.6 v -74.4 h 15.84 15.84 v 27.36 27.36 h 25.44 25.44 V 142.56 115.2 h 15.84 15.84 V 189.6 264 H 185.76 169.92 V 233.28 202.56 H 144.48 119.04 V 233.28 264 H 103.2 87.36 Z m 189.35404,0.72 0.24596,-73.68 h 18.66663 18.66664 l 23.09336,42.63077 23.09337,42.63076 0.24989,-42.87076 0.24988,-42.87077 H 378.24989 395.52 v 73.94073 73.94073 L 377.19467,263.78073 358.86933,263.52 334.71467,220.26544 310.56,177.01089 310.31031,220.50544 310.06063,264 h -16.79628 -16.79627 z m 140.1469,72.19162 c -2.78248,-0.74911 -6.34648,-2.02777 -7.92,-2.84148 L 406.08,258.19069 v -14.85534 c 0,-8.17045 0.324,-14.84977 0.72,-14.84297 0.396,0.007 3.45849,0.87082 6.80553,1.92 7.62118,2.38899 18.00042,2.5568 21.16227,0.34216 4.86652,-3.40865 4.9122,-3.98298 4.9122,-61.7637 V 115.2 h 16.85164 16.85164 l -0.61188,48.72 c -0.33653,26.796 -0.9467,54.38136 -1.35595,61.30079 -0.6621,11.19465 -1.04166,13.12753 -3.44491,17.54311 -8.73461,16.04835 -31.77862,24.9521 -51.1096,19.74772 z M 222.72,189.6 v -73.44 h 16.8 16.8 v 73.44 73.44 h -16.8 -16.8 z m 250.81304,71.29764 c 0.25958,-0.6697 14.63332,-33.30355 31.94162,-72.51965 l 31.46963,-71.30203 16.24272,0.26203 16.24273,0.26201 18.16513,42.61514 c 9.99083,23.43833 18.16513,42.77033 18.16513,42.96 0,0.50155 -20.78526,0.18948 -33.39841,-0.50144 l -10.83842,-0.5937 -5.11807,-11.36632 -5.11806,-11.36632 -5.40352,13.81841 c -2.97194,7.60012 -5.40352,14.11897 -5.40352,14.48632 0,0.36735 14.0655,0.66791 31.25666,0.66791 17.19116,0 31.03255,0.36261 30.75865,0.8058 -0.27391,0.44318 -7.53282,5.95118 -16.13094,12.24 l -15.63292,11.4342 -20.50877,0.48 -20.50878,0.48 -5.55449,13.92 -5.55448,13.92 -22.77194,0.25764 c -18.08308,0.20458 -22.67476,0.007 -22.29995,-0.96 z M 584.94106,260.4 c -0.32928,-0.924 -2.63757,-6.84412 -5.1295,-13.15581 l -4.53081,-11.4758 4.91962,-3.43013 c 2.7058,-1.88656 10.37087,-7.17991 17.03351,-11.76299 l 12.11387,-8.33286 9.79692,23.58476 c 5.3883,12.97161 10.02727,24.18508 10.30883,24.91879 0.42787,1.11504 -3.13476,1.33404 -21.70092,1.33404 -20.28701,0 -22.26475,-0.14565 -22.81152,-1.68 z"
       style="fill:#989d9f;stroke-width:0.99999994" />
    <path
       id="path22"
       d="m 823.87999,320.94561 c -3.16653,-0.64717 -8.65007,-6.49575 -9.02936,-9.63045 -0.99563,-8.22849 3.7904,-14.68261 11.38019,-15.34658 17.01586,-1.4886 20.12609,22.71922 3.20918,24.97802 -1.848,0.24675 -4.35001,0.2463 -5.56001,-9.6e-4 z m 9.88584,-5.34711 c 1.69536,-1.45829 2.6897,-3.47966 3.05634,-6.21319 0.49752,-3.70934 0.247,-4.34814 -2.96484,-7.55998 -3.10369,-3.10369 -3.90871,-3.44329 -6.98046,-2.94482 -4.02634,0.65338 -7.57422,3.62481 -8.4382,7.06719 -0.80727,3.2164 1.06095,8.58502 3.6084,10.36932 3.10242,2.17302 8.76046,1.82611 11.71876,-0.71852 z m 17.24084,5.12437 c -3.08401,-1.30744 -4.79578,-3.79776 -3.50067,-5.09287 0.81151,-0.81151 1.56156,-0.66064 2.94642,0.59264 1.1058,1.00073 2.96077,1.555 4.58269,1.36932 2.16618,-0.248 2.78733,-0.85482 3.02939,-2.95959 0.24531,-2.13297 -0.28624,-2.97272 -2.73455,-4.32 -6.16648,-3.39338 -7.64995,-5.02378 -7.64995,-8.40761 0,-3.84511 2.76399,-6.22476 7.23012,-6.22476 3.91463,0 7.14241,2.29172 5.53056,3.92669 -0.91476,0.92789 -1.46049,0.92598 -2.58716,-0.009 -2.43335,-2.01951 -5.8137,-0.90264 -6.1525,2.03278 -0.25122,2.17653 0.30796,2.90003 3.49984,4.52841 5.19542,2.65051 6.87914,4.54087 6.87914,7.72341 0,5.25574 -6.02797,8.97957 -11.07333,6.84065 z m -93.09124,-1.98846 c 0.33264,-1.04808 2.86529,-6.69895 5.62812,-12.55749 l 5.02331,-10.65191 5.89965,12.5575 c 5.26444,11.20543 5.69379,12.55749 3.98759,12.55749 -1.27782,0 -2.37776,-1.11455 -3.31597,-3.36 -1.35414,-3.24092 -1.58426,-3.36 -6.49321,-3.36 -4.87117,0 -5.158,0.14403 -6.69159,3.36 -1.72916,3.62608 -5.11414,4.84532 -4.0379,1.45441 z M 771.84,310.11257 c 0,-0.51008 -0.72245,-2.44243 -1.60545,-4.29409 l -1.60544,-3.36665 -1.75456,3.91892 c -0.965,2.1554 -1.75455,4.08775 -1.75455,4.29408 0,0.20634 1.512,0.37517 3.36,0.37517 1.848,0 3.36,-0.41734 3.36,-0.92743 z m 13.44,-2.17361 v -12.70104 l 8.89804,8.86104 c 4.89392,4.87357 9.21392,8.86104 9.6,8.86104 0.38608,0 0.70196,-3.888 0.70196,-8.64 0,-7.04 0.26667,-8.64 1.44,-8.64 1.20725,0 1.44,2.04759 1.44,12.66832 v 12.66832 l -3.6,-3.29375 c -1.98,-1.81156 -6.3,-5.87983 -9.6,-9.04058 l -6,-5.74684 v 8.85226 c 0,7.22869 -0.26411,8.85227 -1.44,8.85227 -1.20744,0 -1.44,-2.05122 -1.44,-12.70104 z m -82.23,-23.81872 c -8.15804,-1.61401 -16.06947,-7.63336 -20.13592,-15.32024 -2.68503,-5.07555 -2.47122,-18.20998 0.39099,-24.01812 5.39716,-10.95223 19.03742,-21.22076 26.12183,-19.66476 3.92956,0.86308 4.61587,2.88984 2.05805,6.07784 -9.34323,11.6452 -16.21334,23.03592 -18.165,30.11777 -2.11104,7.6602 2.45025,15.27677 9.99653,16.69246 8.64922,1.6226 24.91939,-4.21721 39.46188,-14.16396 10.18493,-6.96627 31.92238,-28.87612 39.84523,-40.16123 11.39222,-16.22679 17.04732,-29.54004 17.77973,-41.85704 0.80932,-13.61045 -3.03984,-17.65684 -15.47513,-16.26806 -7.90956,0.88333 -18.1324,4.41055 -28.52609,9.84243 -6.34351,3.31519 -8.86414,4.20463 -9.66008,3.40869 -0.59233,-0.59233 -0.8431,-1.646 -0.55727,-2.34149 0.28582,-0.69549 7.75489,-9.90453 16.59792,-20.46453 24.95464,-29.79986 29.32671,-35.70994 28.58959,-38.64687 -0.4761,-1.89692 -0.30837,-2.33364 0.72405,-1.88523 16.37674,7.11272 25.17785,9.32579 39.8207,10.01306 13.91064,0.65288 22.47869,-0.92161 32.52727,-5.97735 9.65802,-4.85923 10.9228,-4.55671 6.66094,1.59316 -5.56954,8.03684 -18.97496,14.42777 -34.30214,16.35327 -15.22328,1.91245 -34.31644,-2.52163 -39.52701,-9.17951 -2.05053,-2.62008 -2.49731,-2.8084 -3.66994,-1.5469 -0.73435,0.79 -8.16747,9.64437 -16.51805,19.67637 -8.35057,10.032 -15.79428,18.96483 -16.54158,19.85074 -1.01804,1.20687 0.50356,0.88761 6.06848,-1.27325 19.75091,-7.66931 36.7249,-7.24901 44.69131,1.1066 7.3932,7.7544 8.6829,24.21657 3.02582,38.6226 -1.60402,4.08469 -5.73452,11.64469 -9.17889,16.8 -20.27601,30.34781 -54.52951,55.92498 -82.75322,61.79203 -9.22105,1.91684 -13.00226,2.07738 -19.35,0.82152 z m 127.79558,-10.29008 c -14.10921,-10.28528 -17.25512,-28.80228 -9.46208,-55.69444 3.97891,-13.73037 17.52855,-40.36142 19.81618,-38.94759 0.63964,0.39532 0.72942,0.16326 0.24198,-0.62544 -0.46763,-0.75665 -0.22051,-1.67211 0.62312,-2.30832 0.76895,-0.57991 3.7329,-4.93529 6.58655,-9.67862 11.96203,-19.8833 29.51277,-39.82413 45.816,-52.0553 17.05558,-12.79561 31.69078,-18.810093 45.85267,-18.843633 13.00415,-0.0308 18.78166,3.04366 23.1577,12.323183 2.2704,4.81447 3.0024,8.71833 1.45545,7.76227 -0.45485,-0.28108 0.0326,1.2262 1.08317,3.3495 2.7097,5.47693 3.22406,18.02977 1.2361,30.16592 -5.30487,32.38375 -26.30134,67.75624 -55.8182,94.03607 -13.995,12.46021 -16.15389,13.47241 -5.00878,2.34837 20.94619,-20.90657 35.98078,-44.45475 43.455,-68.06213 3.89485,-12.3019 7.3159,-31.06949 7.32635,-40.19173 0.0105,-9.14099 -2.32639,-15.31655 -7.11195,-18.79446 -4.53432,-3.29534 -13.94677,-2.76873 -22.08877,1.23582 -17.24788,8.48315 -44.89163,35.1294 -66.38585,63.99037 -3.53906,4.752 -6.79141,8.64 -7.22744,8.64 -0.43603,0 -1.15278,0.39326 -1.59278,0.87392 -0.47232,0.51595 -0.25747,0.55952 0.52454,0.10636 0.91133,-0.52809 1.17338,-0.35149 0.84,0.56609 -0.2665,0.7335 -0.955,1.23081 -1.52999,1.10515 -0.575,-0.12567 -0.80018,0.41069 -0.5004,1.19191 0.30838,0.80362 -0.12107,1.676 -0.98903,2.00908 -0.84375,0.32377 -1.29508,0.97541 -1.00295,1.44808 0.29213,0.47267 0.0482,0.85941 -0.54217,0.85941 -0.59032,0 -0.80632,0.432 -0.48,0.96 0.32632,0.528 0.19572,0.96 -0.29025,0.96 -1.22172,0 -6.4627,12.75671 -8.95507,21.79697 -2.60121,9.43507 -2.80411,21.2158 -0.45956,26.68303 7.81833,18.23148 27.44892,12.9533 60.58488,-16.28975 l 10.56,-9.31937 -12.96,12.84367 c -7.128,7.06403 -15.12,14.3084 -17.76,16.09862 -2.64,1.79021 -5.15055,3.83369 -5.579,4.54107 -0.42845,0.70737 -1.13919,1.06353 -1.57941,0.79147 -0.44022,-0.27207 -1.06531,0.19566 -1.38908,1.03941 -0.34632,0.90249 -1.19876,1.29998 -2.07047,0.96548 -0.81497,-0.31274 -1.245,-0.18552 -0.95562,0.2827 1.43015,2.31404 -21.39669,13.68271 -28.64529,14.2665 -4.24835,0.34214 -5.41716,0.0185 -8.77555,-2.42964 z m 19.97269,-6.61986 c -0.64995,-0.26297 -1.94595,-0.27897 -2.88,-0.0356 -0.93405,0.2434 -0.40227,0.45856 1.18173,0.47812 1.584,0.0196 2.34822,-0.17958 1.69827,-0.44255 z M 841.92,265.63483 c 0,-0.15684 -1.836,-1.99284 -4.08,-4.08 l -4.08,-3.79483 3.79483,4.08 c 3.52915,3.79436 4.36517,4.52115 4.36517,3.79483 z M 828.17579,239.82 c -0.30646,-0.76582 -0.53394,-0.53835 -0.58,0.58 -0.0417,1.012 0.18521,1.579 0.50421,1.26 0.319,-0.319 0.3531,-1.147 0.0757,-1.84 z m 0.01,-17.80173 c -0.2434,-0.93405 -0.45856,-0.40227 -0.47812,1.18173 -0.0196,1.584 0.17957,2.34822 0.44255,1.69827 0.26296,-0.64995 0.27896,-1.94595 0.0356,-2.88 z M 880.44246,153.84 c 1.19411,-1.52262 1.16016,-1.55657 -0.36246,-0.36246 -0.924,0.72466 -1.68,1.48066 -1.68,1.68 0,0.79012 0.78834,0.28158 2.04246,-1.31754 z M 884.64,148.8 c 0.95567,-1.056 1.52158,-1.92 1.25758,-1.92 -0.264,0 -1.26191,0.864 -2.21758,1.92 -0.95567,1.056 -1.52158,1.92 -1.25758,1.92 0.264,0 1.26191,-0.864 2.21758,-1.92 z m 5.76,-6.72 c 0.95567,-1.056 1.52158,-1.92 1.25758,-1.92 -0.264,0 -1.26191,0.864 -2.21758,1.92 -0.95567,1.056 -1.52158,1.92 -1.25758,1.92 0.264,0 1.26191,-0.864 2.21758,-1.92 z m 12.98403,-14.16 7.17597,-7.44 -7.44,7.17597 c -6.91011,6.66489 -7.87802,7.70403 -7.17597,7.70403 0.14521,0 3.49321,-3.348 7.44,-7.44 z m 55.68501,-9.79921 c -1.15523,-1.62237 -3.3409,-3.59124 -4.85705,-4.37528 -4.38825,-2.26924 -4.66936,-1.63358 -0.40747,0.92141 2.13648,1.28081 4.47712,3.43607 5.20144,4.78947 0.72431,1.3534 1.50745,2.27024 1.74025,2.03744 0.2328,-0.23281 -0.52195,-1.75068 -1.67717,-3.37304 z M 917.28,115.2 c 0.95567,-1.056 1.52158,-1.92 1.25758,-1.92 -0.264,0 -1.26191,0.864 -2.21758,1.92 -0.95567,1.056 -1.52158,1.92 -1.25758,1.92 0.264,0 1.26191,-0.864 2.21758,-1.92 z m 4.44246,-3.6 c 1.19411,-1.52262 1.16016,-1.55657 -0.36246,-0.36246 -1.59912,1.25412 -2.10766,2.04246 -1.31754,2.04246 0.19934,0 0.95534,-0.756 1.68,-1.68 z M 941.76,107.04 c 5.544,0 11.30702,0.38063 12.80673,0.84584 2.61566,0.81139 2.67431,0.76144 1.44,-1.22643 -1.78662,-2.87733 -8.35111,-5.86125 -12.86982,-5.85003 -3.76205,0.01 -11.64476,3.17356 -15.29691,6.14037 -1.84815,1.50133 -1.81224,1.53221 0.96,0.82498 1.584,-0.40411 7.416,-0.73473 12.96,-0.73473 z M 87.36,189.6 v -74.4 h 15.84 15.84 v 27.36 27.36 h 25.44 25.44 V 142.56 115.2 h 15.84 15.84 V 189.6 264 H 185.76 169.92 V 233.28 202.56 H 144.48 119.04 V 233.28 264 H 103.2 87.36 Z m 189.12,1.03641 v -73.36359 l 6,-0.61408 c 3.3,-0.33775 11.78356,-0.48014 18.85236,-0.31642 L 314.1847,116.64 337.57236,159.83566 360.96,203.03133 V 159.59566 116.16 h 17.28 17.28 V 190.08 264 H 377.38068 359.24136 L 334.90068,220.40949 310.56,176.81898 310.31031,220.40949 310.06063,264 H 293.27031 276.48 Z m 140.87173,71.86398 c -3.04055,-0.7368 -6.82055,-2.0079 -8.4,-2.82466 L 406.08,258.19069 v -14.95805 c 0,-13.04116 0.1885,-14.88572 1.47086,-14.39363 10.0862,3.87043 22.62214,4.8989 26.74947,2.19457 5.38283,-3.52696 5.37967,-3.49053 5.37967,-62.04274 V 115.2 h 16.8 16.8 l -0.0199,5.52 c -0.0109,3.036 -0.43801,29.79068 -0.9491,59.45484 -0.87666,50.88272 -1.04143,54.23471 -2.91175,59.23358 -3.97922,10.63544 -14.61595,19.17708 -28.21048,22.65397 -8.68639,2.22162 -15.92764,2.35467 -23.83708,0.438 z M 222.72,189.6 v -73.44 h 16.8 16.8 v 73.44 73.44 h -16.8 -16.8 z m 250.72,71.65038 c 0.176,-0.45629 14.55595,-33.07229 31.95545,-72.48 L 537.03088,117.12 h 16.02562 16.02561 l 18.30615,42.9128 c 10.06838,23.60204 18.14542,43.07353 17.94897,43.26997 -0.19645,0.19645 -10.09122,0.0471 -21.98836,-0.33179 l -21.63118,-0.68898 -4.95465,-11.141 c -2.72505,-6.12755 -5.07504,-11.26852 -5.22221,-11.42437 -0.34798,-0.36853 -11.06083,26.39617 -11.06083,27.63408 0,0.59302 11.65299,1.03701 31.39538,1.19618 l 31.39538,0.25311 -16.26561,12 -16.2656,12 -20.5954,0.48 -20.5954,0.48 -5.67833,14.16 -5.67833,14.16 h -22.53605 c -12.39481,0 -22.39204,-0.37332 -22.21604,-0.82962 z M 580.87561,249.70016 C 578.19402,242.89125 576,236.87569 576,236.33225 c 0,-0.54343 4.86,-4.33224 10.8,-8.41956 5.94,-4.08733 13.42121,-9.28547 16.62492,-11.55143 l 5.82492,-4.11993 9.88517,23.71934 c 5.43684,13.04563 10.09784,24.25933 10.35778,24.91933 0.36981,0.93895 -4.33673,1.2 -21.63447,1.2 h -22.1071 z"
       style="fill:#48add3;stroke-width:0.99999994" />
    <path
       id="path20"
       d="m 823.87999,320.94561 c -3.16653,-0.64717 -8.65007,-6.49575 -9.02936,-9.63045 -0.99563,-8.22849 3.7904,-14.68261 11.38019,-15.34658 17.01586,-1.4886 20.12609,22.71922 3.20918,24.97802 -1.848,0.24675 -4.35001,0.2463 -5.56001,-9.6e-4 z m 9.88584,-5.34711 c 1.69536,-1.45829 2.6897,-3.47966 3.05634,-6.21319 0.49752,-3.70934 0.247,-4.34814 -2.96484,-7.55998 -3.10369,-3.10369 -3.90871,-3.44329 -6.98046,-2.94482 -4.02634,0.65338 -7.57422,3.62481 -8.4382,7.06719 -0.80727,3.2164 1.06095,8.58502 3.6084,10.36932 3.10242,2.17302 8.76046,1.82611 11.71876,-0.71852 z m 17.24084,5.12437 c -3.08401,-1.30744 -4.79578,-3.79776 -3.50067,-5.09287 0.81151,-0.81151 1.56156,-0.66064 2.94642,0.59264 1.1058,1.00073 2.96077,1.555 4.58269,1.36932 2.16618,-0.248 2.78733,-0.85482 3.02939,-2.95959 0.24531,-2.13297 -0.28624,-2.97272 -2.73455,-4.32 -6.16648,-3.39338 -7.64995,-5.02378 -7.64995,-8.40761 0,-3.84511 2.76399,-6.22476 7.23012,-6.22476 3.91463,0 7.14241,2.29172 5.53056,3.92669 -0.91476,0.92789 -1.46049,0.92598 -2.58716,-0.009 -2.43335,-2.01951 -5.8137,-0.90264 -6.1525,2.03278 -0.25122,2.17653 0.30796,2.90003 3.49984,4.52841 5.19542,2.65051 6.87914,4.54087 6.87914,7.72341 0,5.25574 -6.02797,8.97957 -11.07333,6.84065 z m -93.09124,-1.98846 c 0.33264,-1.04808 2.86529,-6.69895 5.62812,-12.55749 l 5.02331,-10.65191 5.89965,12.5575 c 5.26444,11.20543 5.69379,12.55749 3.98759,12.55749 -1.27782,0 -2.37776,-1.11455 -3.31597,-3.36 -1.35414,-3.24092 -1.58426,-3.36 -6.49321,-3.36 -4.87117,0 -5.158,0.14403 -6.69159,3.36 -1.72916,3.62608 -5.11414,4.84532 -4.0379,1.45441 z M 771.84,310.11257 c 0,-0.51008 -0.72245,-2.44243 -1.60545,-4.29409 l -1.60544,-3.36665 -1.75456,3.91892 c -0.965,2.1554 -1.75455,4.08775 -1.75455,4.29408 0,0.20634 1.512,0.37517 3.36,0.37517 1.848,0 3.36,-0.41734 3.36,-0.92743 z m 13.44,-2.17361 v -12.70104 l 8.89804,8.86104 c 4.89392,4.87357 9.21392,8.86104 9.6,8.86104 0.38608,0 0.70196,-3.888 0.70196,-8.64 0,-7.04 0.26667,-8.64 1.44,-8.64 1.20725,0 1.44,2.04759 1.44,12.66832 v 12.66832 l -3.6,-3.29375 c -1.98,-1.81156 -6.3,-5.87983 -9.6,-9.04058 l -6,-5.74684 v 8.85226 c 0,7.22869 -0.26411,8.85227 -1.44,8.85227 -1.20744,0 -1.44,-2.05122 -1.44,-12.70104 z m 50.22136,-39.52406 c -5.11643,-2.32619 -8.19903,-8.11349 -8.7302,-16.39014 -0.2513,-3.91581 -0.15188,-7.8993 0.22093,-8.85221 0.3728,-0.95291 0.82635,-6.91655 1.00787,-13.25255 C 829.45182,179.24334 876.84065,114.28152 924,98.320704 c 13.61633,-4.608375 28.1436,-3.457843 34.91395,2.765116 3.74919,3.44603 9.14813,16.61025 6.0192,14.67645 -0.45485,-0.28108 0.0326,1.2262 1.08317,3.3495 2.7097,5.47693 3.22406,18.02977 1.2361,30.16592 -5.30487,32.38375 -26.30134,67.75624 -55.8182,94.03607 -14.80501,13.18138 -16.24747,13.45653 -3.08138,0.58776 6.70606,-6.55462 11.93131,-12.34065 11.61167,-12.85784 -0.31965,-0.51718 -0.12105,-0.65597 0.44132,-0.30841 1.25238,0.77402 11.47481,-11.33574 18.9218,-22.41527 6.72197,-10.00084 15.86328,-28.55386 19.15669,-38.88 1.34721,-4.224 3.10333,-11.51659 3.90253,-16.20575 3.90835,-22.93117 -0.37757,-37.57775 -12.01031,-41.04381 -4.70024,-1.40048 -21.87659,-1.76209 -26.21698,-0.55196 -2.09862,0.58511 -2.55462,0.4754 -1.99497,-0.48 0.90535,-1.54561 -1.64805,0.55791 -12.40525,10.21959 -13.53419,12.15587 -31.35779,33.06995 -44.23234,51.90193 l -4.59416,6.72 5.09326,-5.76 c 2.8013,-3.168 10.69235,-11.376 17.5357,-18.24 l 12.44242,-12.48 -9.10289,10.08 c -12.28398,13.60254 -19.21278,21.9093 -25.97402,31.13964 -3.1184,4.2572 -6.04276,7.74036 -6.49857,7.74036 -0.45581,0 -1.18874,0.39326 -1.62874,0.87392 -0.47232,0.51595 -0.25747,0.55952 0.52454,0.10636 0.91133,-0.52809 1.17338,-0.35149 0.84,0.56609 -0.2665,0.7335 -0.955,1.23081 -1.52999,1.10515 -0.575,-0.12567 -0.80018,0.41069 -0.5004,1.19191 0.30838,0.80362 -0.12107,1.676 -0.98903,2.00908 -0.84375,0.32377 -1.29508,0.97541 -1.00295,1.44808 0.29213,0.47267 0.0482,0.85941 -0.54217,0.85941 -0.59032,0 -0.80632,0.432 -0.48,0.96 0.32632,0.528 0.19572,0.96 -0.29025,0.96 -1.22172,0 -6.4627,12.75671 -8.95507,21.79697 -2.60121,9.43507 -2.80411,21.2158 -0.45956,26.68303 7.81833,18.23148 27.44892,12.9533 60.58488,-16.28975 l 10.56,-9.31937 -13.11252,13.00683 c -13.67307,13.56288 -23.31403,20.72854 -33.08158,24.58793 -3.10524,1.22696 -7.58569,3.08621 -9.95653,4.13166 -5.61401,2.47556 -14.87439,3.09148 -18.90801,1.2576 z m 15.31691,-1.2046 c -0.64995,-0.26297 -1.94595,-0.27897 -2.88,-0.0356 -0.93405,0.2434 -0.40227,0.45856 1.18173,0.47812 1.584,0.0196 2.34822,-0.17958 1.69827,-0.44255 z M 841.92,265.63483 c 0,-0.15684 -1.836,-1.99284 -4.08,-4.08 l -4.08,-3.79483 3.79483,4.08 c 3.52915,3.79436 4.36517,4.52115 4.36517,3.79483 z M 941.76,107.04 c 5.544,0 11.30702,0.38063 12.80673,0.84584 2.61566,0.81139 2.67431,0.76144 1.44,-1.22643 -1.78662,-2.87733 -8.35111,-5.86125 -12.86982,-5.85003 -3.76205,0.01 -11.64476,3.17356 -15.29691,6.14037 -1.84815,1.50133 -1.81224,1.53221 0.96,0.82498 1.584,-0.40411 7.416,-0.73473 12.96,-0.73473 z M 87.36,189.6 v -74.4 h 15.84 15.84 v 27.36 27.36 h 25.44 25.44 V 142.56 115.2 h 15.84 15.84 V 189.6 264 H 185.76 169.92 V 233.28 202.56 H 144.48 119.04 V 233.28 264 H 103.2 87.36 Z m 189.12,0.96 v -73.44 h 7.04928 c 3.8771,0 12.19769,-0.27683 18.4902,-0.61518 l 11.44093,-0.61517 23.50979,43.41122 23.5098,43.41123 0.24978,-43.27605 0.24978,-43.27605 H 378.24978 395.52 V 190.08 264 l -18,-0.0129 -18,-0.0129 -24.48,-43.88359 -24.48,-43.88351 -0.24969,43.89642 L 310.06063,264 H 293.27031 276.48 Z m 144.17436,72.39105 c -2.80809,-0.48078 -7.23609,-1.79065 -9.84,-2.91082 L 406.08,258.00356 V 243.3351 228.66662 l 6.48,1.98005 c 3.76552,1.15061 9.38566,2.01635 13.41639,2.06669 6.60345,0.0825 7.08729,-0.064 10.08,-3.05134 L 439.2,226.52404 439.46265,170.86202 439.7253,115.2 h 16.6051 16.6051 l -0.37402,29.04 c -0.20572,15.972 -0.69448,43.296 -1.08616,60.72 -0.68801,30.60707 -0.78799,31.82631 -2.95224,36 -3.56346,6.87204 -6.57508,10.2756 -12.72789,14.38428 -9.67592,6.46133 -23.87673,9.53531 -35.14083,7.60677 z M 222.72,189.6 v -73.44 h 16.8 16.8 v 73.44 73.44 h -16.8 -16.8 z m 251.52,71.52 c 0.792,-0.51183 1.008,-0.94383 0.48,-0.96 -0.528,-0.0161 -0.39836,-0.38565 0.28809,-0.82108 0.68645,-0.43543 1.31838,-1.7248 1.40429,-2.8653 0.0859,-1.14049 0.52176,-2.07362 0.96857,-2.07362 0.4468,0 0.54537,-0.432 0.21905,-0.96 -0.32632,-0.528 -0.11032,-0.96 0.48,-0.96 0.59032,0 0.82912,-0.39511 0.53068,-0.87801 -0.29846,-0.4829 -0.0888,-1.0293 0.46599,-1.21421 0.55476,-0.18492 1.08137,-1.30182 1.17028,-2.482 0.0889,-1.18017 0.52719,-2.14578 0.974,-2.14578 0.4468,0 0.54537,-0.432 0.21905,-0.96 -0.32632,-0.528 -0.13582,-0.96 0.42334,-0.96 0.55916,0 0.92488,-0.324 0.81271,-0.72 -0.11218,-0.396 0.30463,-1.6352 0.92622,-2.75378 0.6216,-1.11857 0.85738,-2.30657 0.52395,-2.64 C 483.7928,237.3928 484.096,237.12 484.8,237.12 c 0.704,0 0.99773,-0.28228 0.65272,-0.62727 -0.345,-0.34501 0.22528,-2.00673 1.26728,-3.69273 1.042,-1.686 1.61228,-3.34772 1.26728,-3.69273 -0.34501,-0.34499 -0.0513,-0.62727 0.65272,-0.62727 0.704,0 1.0072,-0.2728 0.67378,-0.60622 -0.33343,-0.33343 -0.0976,-1.52143 0.52395,-2.64 0.62159,-1.11858 1.0384,-2.35778 0.92622,-2.75378 -0.11217,-0.396 0.30005,-0.72 0.91605,-0.72 0.616,0 0.84923,-0.27077 0.51829,-0.60171 -0.33094,-0.33095 0.11788,-1.95095 0.99738,-3.6 0.87949,-1.64906 1.51026,-3.32229 1.40171,-3.71829 -0.10856,-0.396 0.30662,-0.72 0.92262,-0.72 0.616,0 0.83773,-0.28228 0.49272,-0.62727 -0.345,-0.34501 0.22528,-2.00673 1.26728,-3.69273 1.042,-1.686 1.61228,-3.34772 1.26728,-3.69273 -0.34501,-0.34499 -0.0513,-0.62727 0.65272,-0.62727 0.704,0 0.99773,-0.28228 0.65272,-0.62727 -0.345,-0.34501 0.26624,-2.07301 1.3583,-3.84 1.09206,-1.76701 1.72325,-3.21273 1.40262,-3.21273 -0.32062,0 0.16604,-1.404 1.08146,-3.12 0.91543,-1.716 1.68253,-3.33732 1.70466,-3.60292 0.0222,-0.2656 7.16824,-16.77526 15.88024,-36.68813 l 15.84,-36.20521 16.13666,-0.0319 c 10.52114,-0.0207 15.93018,0.30221 15.54334,0.92813 -0.32632,0.528 -0.18265,0.96 0.31927,0.96 0.50192,0 1.2482,1.188 1.65839,2.64 0.41019,1.452 0.80952,2.856 0.88741,3.12 0.0779,0.264 0.88725,1.992 1.79858,3.84 1.70481,3.45698 32.14482,74.38926 31.93399,74.41356 -0.0647,0.008 -9.84494,-0.13528 -21.73386,-0.31718 l -21.61622,-0.33073 -5.15189,-11.50672 c -2.83353,-6.3287 -5.50031,-11.15396 -5.92615,-10.72283 -0.42586,0.43115 -3.12031,6.8319 -5.98767,14.2239 l -5.21338,13.44 31.58554,0.48 31.58554,0.48 -16.77177,12.24 -16.77176,12.24 -19.97801,0.0134 -19.97801,0.0134 -3.77207,9.34659 c -2.07465,5.14063 -4.62933,11.29059 -5.67709,13.66659 -1.04776,2.376 -1.83432,4.644 -1.74793,5.04 0.0864,0.396 -10.10291,0.71338 -22.64291,0.7053 -15.07529,-0.01 -22.31213,-0.33005 -21.36,-0.94536 z m 111.56395,0.24 c 0.11218,-0.396 -0.33502,-1.692 -0.99377,-2.88 -0.65875,-1.188 -0.95657,-2.16 -0.66182,-2.16 0.29474,0 -0.17174,-1.08 -1.03664,-2.4 -0.86489,-1.32 -1.25396,-2.4 -0.86459,-2.4 0.38938,0 0.26258,-0.54 -0.28179,-1.2 -1.93578,-2.347 -6.21029,-14.29762 -5.37314,-15.02214 2.52338,-2.18383 32.30028,-22.24538 32.58932,-21.95634 0.30703,0.30704 2.64116,5.84688 16.59148,39.37848 l 3.89409,9.36 h -22.03354 c -12.11846,0 -21.94177,-0.324 -21.8296,-0.72 z M 898.56,141.71754 c 0,-0.19934 0.756,-0.95534 1.68,-1.68 1.52262,-1.19411 1.55657,-1.16016 0.36246,0.36246 -1.25412,1.59912 -2.04246,2.10766 -2.04246,1.31754 z"
       style="fill:#3e8ed3;stroke-width:0.99999994" />
    <path
       id="path18"
       d="m 823.87999,320.94561 c -3.16653,-0.64717 -8.65007,-6.49575 -9.02936,-9.63045 -0.99563,-8.22849 3.7904,-14.68261 11.38019,-15.34658 17.01586,-1.4886 20.12609,22.71922 3.20918,24.97802 -1.848,0.24675 -4.35001,0.2463 -5.56001,-9.6e-4 z m 9.88584,-5.34711 c 1.69536,-1.45829 2.6897,-3.47966 3.05634,-6.21319 0.49752,-3.70934 0.247,-4.34814 -2.96484,-7.55998 -3.10369,-3.10369 -3.90871,-3.44329 -6.98046,-2.94482 -4.02634,0.65338 -7.57422,3.62481 -8.4382,7.06719 -0.80727,3.2164 1.06095,8.58502 3.6084,10.36932 3.10242,2.17302 8.76046,1.82611 11.71876,-0.71852 z m 17.24084,5.12437 c -3.08401,-1.30744 -4.79578,-3.79776 -3.50067,-5.09287 0.81151,-0.81151 1.56156,-0.66064 2.94642,0.59264 1.1058,1.00073 2.96077,1.555 4.58269,1.36932 2.16618,-0.248 2.78733,-0.85482 3.02939,-2.95959 0.24531,-2.13297 -0.28624,-2.97272 -2.73455,-4.32 -6.16648,-3.39338 -7.64995,-5.02378 -7.64995,-8.40761 0,-3.84511 2.76399,-6.22476 7.23012,-6.22476 3.91463,0 7.14241,2.29172 5.53056,3.92669 -0.91476,0.92789 -1.46049,0.92598 -2.58716,-0.009 -2.43335,-2.01951 -5.8137,-0.90264 -6.1525,2.03278 -0.25122,2.17653 0.30796,2.90003 3.49984,4.52841 5.19542,2.65051 6.87914,4.54087 6.87914,7.72341 0,5.25574 -6.02797,8.97957 -11.07333,6.84065 z m -93.09124,-1.98846 c 0.33264,-1.04808 2.86529,-6.69895 5.62812,-12.55749 l 5.02331,-10.65191 5.89965,12.5575 c 5.26444,11.20543 5.69379,12.55749 3.98759,12.55749 -1.27782,0 -2.37776,-1.11455 -3.31597,-3.36 -1.35414,-3.24092 -1.58426,-3.36 -6.49321,-3.36 -4.87117,0 -5.158,0.14403 -6.69159,3.36 -1.72916,3.62608 -5.11414,4.84532 -4.0379,1.45441 z M 771.84,310.11257 c 0,-0.51008 -0.72245,-2.44243 -1.60545,-4.29409 l -1.60544,-3.36665 -1.75456,3.91892 c -0.965,2.1554 -1.75455,4.08775 -1.75455,4.29408 0,0.20634 1.512,0.37517 3.36,0.37517 1.848,0 3.36,-0.41734 3.36,-0.92743 z m 13.44,-2.17361 v -12.70104 l 8.89804,8.86104 c 4.89392,4.87357 9.21392,8.86104 9.6,8.86104 0.38608,0 0.70196,-3.888 0.70196,-8.64 0,-7.04 0.26667,-8.64 1.44,-8.64 1.20725,0 1.44,2.04759 1.44,12.66832 v 12.66832 l -3.6,-3.29375 c -1.98,-1.81156 -6.3,-5.87983 -9.6,-9.04058 l -6,-5.74684 v 8.85226 c 0,7.22869 -0.26411,8.85227 -1.44,8.85227 -1.20744,0 -1.44,-2.05122 -1.44,-12.70104 z m 50.22136,-39.52406 c -5.11643,-2.32619 -8.19903,-8.11349 -8.7302,-16.39014 -0.2513,-3.91581 -0.15188,-7.8993 0.22093,-8.85221 0.3728,-0.95291 0.82635,-6.91655 1.00787,-13.25255 C 829.45182,179.24334 876.84065,114.28152 924,98.320704 c 13.61633,-4.608375 28.1436,-3.457843 34.91395,2.765116 3.74919,3.44603 9.14813,16.61025 6.0192,14.67645 -0.45485,-0.28108 0.0326,1.2262 1.08317,3.3495 2.7097,5.47693 3.22406,18.02977 1.2361,30.16592 -5.30487,32.38375 -26.30134,67.75624 -55.8182,94.03607 -14.80501,13.18138 -16.24747,13.45653 -3.08138,0.58776 6.70606,-6.55462 11.93131,-12.34065 11.61167,-12.85784 -0.31965,-0.51718 -0.12105,-0.65597 0.44132,-0.30841 1.25238,0.77402 11.47481,-11.33574 18.9218,-22.41527 6.72197,-10.00084 15.86328,-28.55386 19.15669,-38.88 1.34721,-4.224 3.10333,-11.51659 3.90253,-16.20575 3.90835,-22.93117 -0.37757,-37.57775 -12.01031,-41.04381 -4.70024,-1.40048 -21.87659,-1.76209 -26.21698,-0.55196 -2.09862,0.58511 -2.55462,0.4754 -1.99497,-0.48 0.90535,-1.54561 -1.64805,0.55791 -12.40525,10.21959 -13.53419,12.15587 -31.35779,33.06995 -44.23234,51.90193 l -4.59416,6.72 5.09326,-5.76 c 2.8013,-3.168 10.69235,-11.376 17.5357,-18.24 l 12.44242,-12.48 -9.10289,10.08 c -12.28398,13.60254 -19.21278,21.9093 -25.97402,31.13964 -3.1184,4.2572 -6.04276,7.74036 -6.49857,7.74036 -0.45581,0 -1.18874,0.39326 -1.62874,0.87392 -0.47232,0.51595 -0.25747,0.55952 0.52454,0.10636 0.91133,-0.52809 1.17338,-0.35149 0.84,0.56609 -0.2665,0.7335 -0.955,1.23081 -1.52999,1.10515 -0.575,-0.12567 -0.80018,0.41069 -0.5004,1.19191 0.30838,0.80362 -0.12107,1.676 -0.98903,2.00908 -0.84375,0.32377 -1.29508,0.97541 -1.00295,1.44808 0.29213,0.47267 0.0482,0.85941 -0.54217,0.85941 -0.59032,0 -0.80632,0.432 -0.48,0.96 0.32632,0.528 0.19572,0.96 -0.29025,0.96 -1.22172,0 -6.4627,12.75671 -8.95507,21.79697 -2.60121,9.43507 -2.80411,21.2158 -0.45956,26.68303 7.81833,18.23148 27.44892,12.9533 60.58488,-16.28975 l 10.56,-9.31937 -13.11252,13.00683 c -13.67307,13.56288 -23.31403,20.72854 -33.08158,24.58793 -3.10524,1.22696 -7.58569,3.08621 -9.95653,4.13166 -5.61401,2.47556 -14.87439,3.09148 -18.90801,1.2576 z m 15.31691,-1.2046 c -0.64995,-0.26297 -1.94595,-0.27897 -2.88,-0.0356 -0.93405,0.2434 -0.40227,0.45856 1.18173,0.47812 1.584,0.0196 2.34822,-0.17958 1.69827,-0.44255 z M 841.92,265.63483 c 0,-0.15684 -1.836,-1.99284 -4.08,-4.08 l -4.08,-3.79483 3.79483,4.08 c 3.52915,3.79436 4.36517,4.52115 4.36517,3.79483 z M 941.76,107.04 c 5.544,0 11.30702,0.38063 12.80673,0.84584 2.61566,0.81139 2.67431,0.76144 1.44,-1.22643 -1.78662,-2.87733 -8.35111,-5.86125 -12.86982,-5.85003 -3.76205,0.01 -11.64476,3.17356 -15.29691,6.14037 -1.84815,1.50133 -1.81224,1.53221 0.96,0.82498 1.584,-0.40411 7.416,-0.73473 12.96,-0.73473 z m -43.2,34.67754 c 0,-0.19934 0.756,-0.95534 1.68,-1.68 1.52262,-1.19411 1.55657,-1.16016 0.36246,0.36246 -1.25412,1.59912 -2.04246,2.10766 -2.04246,1.31754 z"
       style="fill:#54c288;stroke-width:0.99999994" />
    <path
       id="path16"
       d="m 823.87999,320.94561 c -3.16653,-0.64717 -8.65007,-6.49575 -9.02936,-9.63045 -0.99563,-8.22849 3.7904,-14.68261 11.38019,-15.34658 17.01586,-1.4886 20.12609,22.71922 3.20918,24.97802 -1.848,0.24675 -4.35001,0.2463 -5.56001,-9.6e-4 z m 9.88584,-5.34711 c 1.69536,-1.45829 2.6897,-3.47966 3.05634,-6.21319 0.49752,-3.70934 0.247,-4.34814 -2.96484,-7.55998 -3.10369,-3.10369 -3.90871,-3.44329 -6.98046,-2.94482 -4.02634,0.65338 -7.57422,3.62481 -8.4382,7.06719 -0.80727,3.2164 1.06095,8.58502 3.6084,10.36932 3.10242,2.17302 8.76046,1.82611 11.71876,-0.71852 z m 17.24084,5.12437 c -3.08401,-1.30744 -4.79578,-3.79776 -3.50067,-5.09287 0.81151,-0.81151 1.56156,-0.66064 2.94642,0.59264 1.1058,1.00073 2.96077,1.555 4.58269,1.36932 2.16618,-0.248 2.78733,-0.85482 3.02939,-2.95959 0.24531,-2.13297 -0.28624,-2.97272 -2.73455,-4.32 -6.16648,-3.39338 -7.64995,-5.02378 -7.64995,-8.40761 0,-3.84511 2.76399,-6.22476 7.23012,-6.22476 3.91463,0 7.14241,2.29172 5.53056,3.92669 -0.91476,0.92789 -1.46049,0.92598 -2.58716,-0.009 -2.43335,-2.01951 -5.8137,-0.90264 -6.1525,2.03278 -0.25122,2.17653 0.30796,2.90003 3.49984,4.52841 5.19542,2.65051 6.87914,4.54087 6.87914,7.72341 0,5.25574 -6.02797,8.97957 -11.07333,6.84065 z m -93.09124,-1.98846 c 0.33264,-1.04808 2.86529,-6.69895 5.62812,-12.55749 l 5.02331,-10.65191 5.89965,12.5575 c 5.26444,11.20543 5.69379,12.55749 3.98759,12.55749 -1.27782,0 -2.37776,-1.11455 -3.31597,-3.36 -1.35414,-3.24092 -1.58426,-3.36 -6.49321,-3.36 -4.87117,0 -5.158,0.14403 -6.69159,3.36 -1.72916,3.62608 -5.11414,4.84532 -4.0379,1.45441 z M 771.84,310.11257 c 0,-0.51008 -0.72245,-2.44243 -1.60545,-4.29409 l -1.60544,-3.36665 -1.75456,3.91892 c -0.965,2.1554 -1.75455,4.08775 -1.75455,4.29408 0,0.20634 1.512,0.37517 3.36,0.37517 1.848,0 3.36,-0.41734 3.36,-0.92743 z m 13.44,-2.17361 v -12.70104 l 8.89804,8.86104 c 4.89392,4.87357 9.21392,8.86104 9.6,8.86104 0.38608,0 0.70196,-3.888 0.70196,-8.64 0,-7.04 0.26667,-8.64 1.44,-8.64 1.20725,0 1.44,2.04759 1.44,12.66832 v 12.66832 l -3.6,-3.29375 c -1.98,-1.81156 -6.3,-5.87983 -9.6,-9.04058 l -6,-5.74684 v 8.85226 c 0,7.22869 -0.26411,8.85227 -1.44,8.85227 -1.20744,0 -1.44,-2.05122 -1.44,-12.70104 z m 58.0688,-41.96424 c -2.97221,-1.20596 -10.03588,-9.33279 -11.99995,-13.80608 -6.1843,-14.08515 -4.06577,-38.2696 5.42253,-61.90178 14.01991,-34.91891 43.84476,-69.88496 73.30862,-85.94552 19.0513,-10.384745 39.57634,-11.744641 48.83395,-3.23552 2.59152,2.38199 6.82243,10.76214 6.83664,13.54144 0.01,1.4774 -0.64281,1.15572 -3.39677,-1.68 -1.87344,-1.92899 -3.74445,-3.50726 -4.15781,-3.50726 -0.41336,0 -1.32726,-1.07568 -2.03087,-2.39041 -1.66435,-3.10983 -8.24356,-6.25522 -13.02823,-6.22851 -10.43781,0.0583 -30.63577,15.44001 -51.784,39.43607 -44.58547,50.58934 -64.58139,99.70344 -47.74771,117.27816 9.3543,9.76608 28.08596,2.19798 56.3948,-22.78506 l 10.56,-9.31937 -13.11252,13.00683 c -7.63711,7.57556 -16.17216,15.00419 -20.43978,17.79013 -13.00038,8.48673 -26.86766,12.5024 -33.6589,9.74688 z"
       style="fill:#e80e82;stroke-width:0.99999994" />
    <path
       id="path14"
       d="m 823.87999,320.94561 c -3.16653,-0.64717 -8.65007,-6.49575 -9.02936,-9.63045 -0.99563,-8.22849 3.7904,-14.68261 11.38019,-15.34658 17.01586,-1.4886 20.12609,22.71922 3.20918,24.97802 -1.848,0.24675 -4.35001,0.2463 -5.56001,-9.6e-4 z m 9.88584,-5.34711 c 1.69536,-1.45829 2.6897,-3.47966 3.05634,-6.21319 0.49752,-3.70934 0.247,-4.34814 -2.96484,-7.55998 -3.10369,-3.10369 -3.90871,-3.44329 -6.98046,-2.94482 -4.02634,0.65338 -7.57422,3.62481 -8.4382,7.06719 -0.80727,3.2164 1.06095,8.58502 3.6084,10.36932 3.10242,2.17302 8.76046,1.82611 11.71876,-0.71852 z m 17.24084,5.12437 c -3.08401,-1.30744 -4.79578,-3.79776 -3.50067,-5.09287 0.81151,-0.81151 1.56156,-0.66064 2.94642,0.59264 1.1058,1.00073 2.96077,1.555 4.58269,1.36932 2.16618,-0.248 2.78733,-0.85482 3.02939,-2.95959 0.24531,-2.13297 -0.28624,-2.97272 -2.73455,-4.32 -6.16648,-3.39338 -7.64995,-5.02378 -7.64995,-8.40761 0,-3.84511 2.76399,-6.22476 7.23012,-6.22476 3.91463,0 7.14241,2.29172 5.53056,3.92669 -0.91476,0.92789 -1.46049,0.92598 -2.58716,-0.009 -2.43335,-2.01951 -5.8137,-0.90264 -6.1525,2.03278 -0.25122,2.17653 0.30796,2.90003 3.49984,4.52841 5.19542,2.65051 6.87914,4.54087 6.87914,7.72341 0,5.25574 -6.02797,8.97957 -11.07333,6.84065 z m -93.09124,-1.98846 c 0.33264,-1.04808 2.86529,-6.69895 5.62812,-12.55749 l 5.02331,-10.65191 5.89965,12.5575 c 5.26444,11.20543 5.69379,12.55749 3.98759,12.55749 -1.27782,0 -2.37776,-1.11455 -3.31597,-3.36 -1.35414,-3.24092 -1.58426,-3.36 -6.49321,-3.36 -4.87117,0 -5.158,0.14403 -6.69159,3.36 -1.72916,3.62608 -5.11414,4.84532 -4.0379,1.45441 z M 771.84,310.11257 c 0,-0.51008 -0.72245,-2.44243 -1.60545,-4.29409 l -1.60544,-3.36665 -1.75456,3.91892 c -0.965,2.1554 -1.75455,4.08775 -1.75455,4.29408 0,0.20634 1.512,0.37517 3.36,0.37517 1.848,0 3.36,-0.41734 3.36,-0.92743 z m 13.44,-2.17361 v -12.70104 l 8.89804,8.86104 c 4.89392,4.87357 9.21392,8.86104 9.6,8.86104 0.38608,0 0.70196,-3.888 0.70196,-8.64 0,-7.04 0.26667,-8.64 1.44,-8.64 1.20725,0 1.44,2.04759 1.44,12.66832 v 12.66832 l -3.6,-3.29375 c -1.98,-1.81156 -6.3,-5.87983 -9.6,-9.04058 l -6,-5.74684 v 8.85226 c 0,7.22869 -0.26411,8.85227 -1.44,8.85227 -1.20744,0 -1.44,-2.05122 -1.44,-12.70104 z"
       style="fill:#636768;stroke-width:0.99999994" />
  </g>
</svg>
